<mxfile host="65bd71144e">
    <diagram id="5q5EOTjtX7OJyar-PDXx" name="index.html">
        <mxGraphModel dx="1070" dy="389" grid="1" gridSize="10" guides="1" tooltips="1" connect="1" arrows="1" fold="1" page="1" pageScale="1" pageWidth="827" pageHeight="1169" math="0" shadow="0">
            <root>
                <mxCell id="0"/>
                <mxCell id="1" parent="0"/>
                <mxCell id="2" value="&lt;h1&gt;Remover Elemento&lt;/h1&gt;" style="text;html=1;strokeColor=none;fillColor=none;spacing=5;spacingTop=-20;whiteSpace=wrap;overflow=hidden;rounded=0;" vertex="1" parent="1">
                    <mxGeometry x="294" y="30" width="240" height="40" as="geometry"/>
                </mxCell>
                <mxCell id="3" value="Actor" style="shape=umlActor;verticalLabelPosition=bottom;verticalAlign=top;html=1;outlineConnect=0;" vertex="1" parent="1">
                    <mxGeometry x="70" y="170" width="30" height="60" as="geometry"/>
                </mxCell>
                <mxCell id="5" value="" style="endArrow=none;dashed=1;html=1;" edge="1" parent="1">
                    <mxGeometry width="50" height="50" relative="1" as="geometry">
                        <mxPoint x="110" y="190" as="sourcePoint"/>
                        <mxPoint x="200" y="190" as="targetPoint"/>
                    </mxGeometry>
                </mxCell>
                <mxCell id="6" value="Entrar na página" style="rounded=0;whiteSpace=wrap;html=1;" vertex="1" parent="1">
                    <mxGeometry x="200" y="160" width="120" height="60" as="geometry"/>
                </mxCell>
                <mxCell id="7" value="Informar o indice do item que deseja excluir&amp;nbsp;" style="whiteSpace=wrap;html=1;rounded=0;" vertex="1" parent="1">
                    <mxGeometry x="200" y="300" width="120" height="60" as="geometry"/>
                </mxCell>
                <mxCell id="9" value="" style="endArrow=none;dashed=1;html=1;exitX=0.562;exitY=-0.057;exitDx=0;exitDy=0;exitPerimeter=0;entryX=0.557;entryY=1.062;entryDx=0;entryDy=0;entryPerimeter=0;" edge="1" parent="1" source="7" target="6">
                    <mxGeometry width="50" height="50" relative="1" as="geometry">
                        <mxPoint x="220" y="270" as="sourcePoint"/>
                        <mxPoint x="270" y="220" as="targetPoint"/>
                    </mxGeometry>
                </mxCell>
                <mxCell id="10" value="" style="endArrow=none;dashed=1;html=1;" edge="1" parent="1">
                    <mxGeometry width="50" height="50" relative="1" as="geometry">
                        <mxPoint x="270" y="410" as="sourcePoint"/>
                        <mxPoint x="270" y="360" as="targetPoint"/>
                    </mxGeometry>
                </mxCell>
                <mxCell id="11" value="Item excluído da lista" style="whiteSpace=wrap;html=1;rounded=0;" vertex="1" parent="1">
                    <mxGeometry x="200" y="490" width="120" height="60" as="geometry"/>
                </mxCell>
                <mxCell id="15" value="Item excluído da página" style="shape=document;whiteSpace=wrap;html=1;boundedLbl=1;" vertex="1" parent="1">
                    <mxGeometry x="560" y="650" width="120" height="80" as="geometry"/>
                </mxCell>
                <mxCell id="20" value="" style="edgeStyle=none;html=1;" edge="1" parent="1" source="16" target="18">
                    <mxGeometry relative="1" as="geometry">
                        <Array as="points">
                            <mxPoint x="620" y="510"/>
                        </Array>
                    </mxGeometry>
                </mxCell>
                <mxCell id="16" value="Usuário insere no input o indice da lista que deseja excluir" style="shape=manualInput;whiteSpace=wrap;html=1;" vertex="1" parent="1">
                    <mxGeometry x="560" y="410" width="120" height="80" as="geometry"/>
                </mxCell>
                <mxCell id="19" value="" style="edgeStyle=none;html=1;" edge="1" parent="1" source="18" target="15">
                    <mxGeometry relative="1" as="geometry"/>
                </mxCell>
                <mxCell id="18" value="Usuário clica no botão para ativar evento" style="shape=manualInput;whiteSpace=wrap;html=1;" vertex="1" parent="1">
                    <mxGeometry x="560" y="530" width="120" height="80" as="geometry"/>
                </mxCell>
                <mxCell id="22" value="" style="edgeStyle=none;html=1;" edge="1" parent="1" source="21" target="16">
                    <mxGeometry relative="1" as="geometry"/>
                </mxCell>
                <mxCell id="21" value="Apresentação da lista com elementos" style="shape=document;whiteSpace=wrap;html=1;boundedLbl=1;" vertex="1" parent="1">
                    <mxGeometry x="560" y="300" width="120" height="80" as="geometry"/>
                </mxCell>
                <mxCell id="24" value="" style="edgeStyle=none;html=1;" edge="1" parent="1" source="23" target="21">
                    <mxGeometry relative="1" as="geometry"/>
                </mxCell>
                <mxCell id="23" value="Dados gerais sobre a página" style="shape=document;whiteSpace=wrap;html=1;boundedLbl=1;" vertex="1" parent="1">
                    <mxGeometry x="560" y="190" width="120" height="80" as="geometry"/>
                </mxCell>
                <mxCell id="25" value="" style="endArrow=classic;html=1;entryX=0.558;entryY=1.017;entryDx=0;entryDy=0;entryPerimeter=0;" edge="1" parent="1" target="11">
                    <mxGeometry relative="1" as="geometry">
                        <mxPoint x="550" y="680" as="sourcePoint"/>
                        <mxPoint x="270" y="520" as="targetPoint"/>
                        <Array as="points">
                            <mxPoint x="260" y="680"/>
                        </Array>
                    </mxGeometry>
                </mxCell>
                <mxCell id="26" value="Label" style="edgeLabel;resizable=0;html=1;align=center;verticalAlign=middle;" connectable="0" vertex="1" parent="25">
                    <mxGeometry relative="1" as="geometry"/>
                </mxCell>
                <mxCell id="27" value="" style="endArrow=classic;html=1;exitX=-0.03;exitY=0.644;exitDx=0;exitDy=0;exitPerimeter=0;entryX=1;entryY=0.5;entryDx=0;entryDy=0;" edge="1" parent="1" source="18" target="29">
                    <mxGeometry relative="1" as="geometry">
                        <mxPoint x="380" y="410" as="sourcePoint"/>
                        <mxPoint x="330" y="340" as="targetPoint"/>
                        <Array as="points">
                            <mxPoint x="380" y="540"/>
                        </Array>
                    </mxGeometry>
                </mxCell>
                <mxCell id="28" value="Label" style="edgeLabel;resizable=0;html=1;align=center;verticalAlign=middle;" connectable="0" vertex="1" parent="27">
                    <mxGeometry relative="1" as="geometry"/>
                </mxCell>
                <mxCell id="29" value="Clica no botão" style="whiteSpace=wrap;html=1;rounded=0;" vertex="1" parent="1">
                    <mxGeometry x="200" y="400" width="120" height="60" as="geometry"/>
                </mxCell>
                <mxCell id="31" value="" style="endArrow=none;dashed=1;html=1;dashPattern=1 3;strokeWidth=2;" edge="1" parent="1">
                    <mxGeometry width="50" height="50" relative="1" as="geometry">
                        <mxPoint x="260" y="480" as="sourcePoint"/>
                        <mxPoint x="260" y="470" as="targetPoint"/>
                    </mxGeometry>
                </mxCell>
                <mxCell id="32" value="" style="endArrow=classic;html=1;" edge="1" parent="1">
                    <mxGeometry relative="1" as="geometry">
                        <mxPoint x="550" y="440" as="sourcePoint"/>
                        <mxPoint x="330" y="320" as="targetPoint"/>
                        <Array as="points">
                            <mxPoint x="410" y="430"/>
                        </Array>
                    </mxGeometry>
                </mxCell>
                <mxCell id="33" value="Label" style="edgeLabel;resizable=0;html=1;align=center;verticalAlign=middle;" connectable="0" vertex="1" parent="32">
                    <mxGeometry relative="1" as="geometry"/>
                </mxCell>
                <mxCell id="i81yKH4xkli6BGmhtRhB-33" value="&lt;h1&gt;Remover Elemento&lt;/h1&gt;" style="text;html=1;strokeColor=none;fillColor=none;spacing=5;spacingTop=-20;whiteSpace=wrap;overflow=hidden;rounded=0;" vertex="1" parent="1">
                    <mxGeometry x="294" y="30" width="240" height="40" as="geometry"/>
                </mxCell>
                <mxCell id="i81yKH4xkli6BGmhtRhB-34" value="Dados gerais sobre a página" style="shape=document;whiteSpace=wrap;html=1;boundedLbl=1;" vertex="1" parent="1">
                    <mxGeometry x="560" y="190" width="120" height="80" as="geometry"/>
                </mxCell>
            </root>
        </mxGraphModel>
    </diagram>
    <diagram id="ypxLYF9R9u9Ggg4EO_dI" name="index,js">
        <mxGraphModel dx="1284" dy="467" grid="1" gridSize="10" guides="1" tooltips="1" connect="1" arrows="1" fold="1" page="1" pageScale="1" pageWidth="827" pageHeight="1169" math="0" shadow="0">
            <root>
                <mxCell id="0"/>
                <mxCell id="1" parent="0"/>
                <mxCell id="ZVATye95yIs_yLcJs_ER-1" value="Item excluído da página" style="shape=document;whiteSpace=wrap;html=1;boundedLbl=1;" vertex="1" parent="1">
                    <mxGeometry x="680" y="670" width="120" height="80" as="geometry"/>
                </mxCell>
                <mxCell id="ZVATye95yIs_yLcJs_ER-3" value="Usuário clica no botão para ativar evento" style="shape=manualInput;whiteSpace=wrap;html=1;" vertex="1" parent="1">
                    <mxGeometry x="510" y="670" width="120" height="80" as="geometry"/>
                </mxCell>
                <mxCell id="ZVATye95yIs_yLcJs_ER-5" value="&lt;h1&gt;Remover Elemento&lt;/h1&gt;" style="text;html=1;strokeColor=none;fillColor=none;spacing=5;spacingTop=-20;whiteSpace=wrap;overflow=hidden;rounded=0;" vertex="1" parent="1">
                    <mxGeometry x="587" y="130" width="240" height="40" as="geometry"/>
                </mxCell>
                <mxCell id="ZVATye95yIs_yLcJs_ER-8" value="Apresentação da lista com elementos" style="shape=document;whiteSpace=wrap;html=1;boundedLbl=1;" vertex="1" parent="1">
                    <mxGeometry x="190" y="670" width="120" height="80" as="geometry"/>
                </mxCell>
                <mxCell id="ZVATye95yIs_yLcJs_ER-9" value="Usuário insere no input o indice da lista que deseja excluir" style="shape=manualInput;whiteSpace=wrap;html=1;" vertex="1" parent="1">
                    <mxGeometry x="350" y="670" width="120" height="80" as="geometry"/>
                </mxCell>
                <mxCell id="ZVATye95yIs_yLcJs_ER-10" value="Inicío" style="rounded=1;whiteSpace=wrap;html=1;" vertex="1" parent="1">
                    <mxGeometry x="10" y="390" width="160" height="40" as="geometry"/>
                </mxCell>
                <mxCell id="ZVATye95yIs_yLcJs_ER-15" value="Fim" style="rounded=1;whiteSpace=wrap;html=1;" vertex="1" parent="1">
                    <mxGeometry x="860" y="390" width="160" height="40" as="geometry"/>
                </mxCell>
                <mxCell id="ZVATye95yIs_yLcJs_ER-19" value="" style="edgeStyle=none;html=1;" edge="1" parent="1" source="ZVATye95yIs_yLcJs_ER-16" target="ZVATye95yIs_yLcJs_ER-17">
                    <mxGeometry relative="1" as="geometry"/>
                </mxCell>
                <mxCell id="ZVATye95yIs_yLcJs_ER-16" value="Atribuição do botão e inclusão de evento realizado ao ser clicado a vinculação da função" style="shape=parallelogram;perimeter=parallelogramPerimeter;whiteSpace=wrap;html=1;fixedSize=1;" vertex="1" parent="1">
                    <mxGeometry x="190" y="360" width="180" height="90" as="geometry"/>
                </mxCell>
                <mxCell id="ZVATye95yIs_yLcJs_ER-17" value="Atribuição IDs e valor descrito no campo Input" style="shape=parallelogram;perimeter=parallelogramPerimeter;whiteSpace=wrap;html=1;fixedSize=1;" vertex="1" parent="1">
                    <mxGeometry x="420" y="380" width="180" height="60" as="geometry"/>
                </mxCell>
                <mxCell id="ZVATye95yIs_yLcJs_ER-20" value="" style="endArrow=none;dashed=1;html=1;dashPattern=1 3;strokeWidth=2;entryX=0;entryY=0.5;entryDx=0;entryDy=0;" edge="1" parent="1" target="ZVATye95yIs_yLcJs_ER-21">
                    <mxGeometry width="50" height="50" relative="1" as="geometry">
                        <mxPoint x="600" y="405" as="sourcePoint"/>
                        <mxPoint x="584" y="310" as="targetPoint"/>
                    </mxGeometry>
                </mxCell>
                <mxCell id="ZVATye95yIs_yLcJs_ER-23" value="" style="edgeStyle=none;html=1;" edge="1" parent="1" source="ZVATye95yIs_yLcJs_ER-21" target="ZVATye95yIs_yLcJs_ER-15">
                    <mxGeometry relative="1" as="geometry"/>
                </mxCell>
                <mxCell id="ZVATye95yIs_yLcJs_ER-21" value="Remoção do filho conforme indice selecionado pelo usuário" style="rounded=0;whiteSpace=wrap;html=1;" vertex="1" parent="1">
                    <mxGeometry x="650" y="375" width="160" height="60" as="geometry"/>
                </mxCell>
                <mxCell id="ZVATye95yIs_yLcJs_ER-31" value="Dados gerais sobre a página" style="shape=document;whiteSpace=wrap;html=1;boundedLbl=1;" vertex="1" parent="1">
                    <mxGeometry x="30" y="670" width="120" height="80" as="geometry"/>
                </mxCell>
                <mxCell id="ZVATye95yIs_yLcJs_ER-34" value="&lt;h1&gt;Remover Elemento&lt;/h1&gt;" style="text;html=1;strokeColor=none;fillColor=none;spacing=5;spacingTop=-20;whiteSpace=wrap;overflow=hidden;rounded=0;" vertex="1" parent="1">
                    <mxGeometry x="587" y="130" width="240" height="40" as="geometry"/>
                </mxCell>
                <mxCell id="ZVATye95yIs_yLcJs_ER-35" value="Inicío" style="rounded=1;whiteSpace=wrap;html=1;" vertex="1" parent="1">
                    <mxGeometry x="10" y="390" width="160" height="40" as="geometry"/>
                </mxCell>
                <mxCell id="ZVATye95yIs_yLcJs_ER-36" value="Atribuição do botão e inclusão de evento realizado ao ser clicado a vinculação da função" style="shape=parallelogram;perimeter=parallelogramPerimeter;whiteSpace=wrap;html=1;fixedSize=1;" vertex="1" parent="1">
                    <mxGeometry x="190" y="360" width="180" height="90" as="geometry"/>
                </mxCell>
                <mxCell id="ZVATye95yIs_yLcJs_ER-37" value="Inicío" style="rounded=1;whiteSpace=wrap;html=1;" vertex="1" parent="1">
                    <mxGeometry x="10" y="390" width="160" height="40" as="geometry"/>
                </mxCell>
                <mxCell id="ZVATye95yIs_yLcJs_ER-38" value="Inicío" style="rounded=1;whiteSpace=wrap;html=1;" vertex="1" parent="1">
                    <mxGeometry x="10" y="390" width="160" height="40" as="geometry"/>
                </mxCell>
                <mxCell id="ZVATye95yIs_yLcJs_ER-39" value="Inicío" style="rounded=1;whiteSpace=wrap;html=1;" vertex="1" parent="1">
                    <mxGeometry x="10" y="390" width="160" height="40" as="geometry"/>
                </mxCell>
                <mxCell id="ZVATye95yIs_yLcJs_ER-40" value="Inicío" style="rounded=1;whiteSpace=wrap;html=1;" vertex="1" parent="1">
                    <mxGeometry x="10" y="390" width="160" height="40" as="geometry"/>
                </mxCell>
                <mxCell id="ZVATye95yIs_yLcJs_ER-41" value="Inicío" style="rounded=1;whiteSpace=wrap;html=1;" vertex="1" parent="1">
                    <mxGeometry x="10" y="390" width="160" height="40" as="geometry"/>
                </mxCell>
                <mxCell id="ZVATye95yIs_yLcJs_ER-42" value="Inicío" style="rounded=1;whiteSpace=wrap;html=1;" vertex="1" parent="1">
                    <mxGeometry x="10" y="390" width="160" height="40" as="geometry"/>
                </mxCell>
                <mxCell id="ZVATye95yIs_yLcJs_ER-43" value="Inicío" style="rounded=1;whiteSpace=wrap;html=1;" vertex="1" parent="1">
                    <mxGeometry x="10" y="390" width="160" height="40" as="geometry"/>
                </mxCell>
                <mxCell id="ZVATye95yIs_yLcJs_ER-44" value="Item excluído da página" style="shape=document;whiteSpace=wrap;html=1;boundedLbl=1;" vertex="1" parent="1">
                    <mxGeometry x="680" y="670" width="120" height="80" as="geometry"/>
                </mxCell>
                <mxCell id="ZVATye95yIs_yLcJs_ER-45" value="Item excluído da página" style="shape=document;whiteSpace=wrap;html=1;boundedLbl=1;" vertex="1" parent="1">
                    <mxGeometry x="680" y="670" width="120" height="80" as="geometry"/>
                </mxCell>
                <mxCell id="ZVATye95yIs_yLcJs_ER-46" value="Usuário insere no input o indice da lista que deseja excluir" style="shape=manualInput;whiteSpace=wrap;html=1;" vertex="1" parent="1">
                    <mxGeometry x="350" y="670" width="120" height="80" as="geometry"/>
                </mxCell>
                <mxCell id="ZVATye95yIs_yLcJs_ER-47" value="Item excluído da página" style="shape=document;whiteSpace=wrap;html=1;boundedLbl=1;" vertex="1" parent="1">
                    <mxGeometry x="680" y="670" width="120" height="80" as="geometry"/>
                </mxCell>
                <mxCell id="ZVATye95yIs_yLcJs_ER-48" value="Usuário insere no input o indice da lista que deseja excluir" style="shape=manualInput;whiteSpace=wrap;html=1;" vertex="1" parent="1">
                    <mxGeometry x="350" y="670" width="120" height="80" as="geometry"/>
                </mxCell>
                <mxCell id="ZVATye95yIs_yLcJs_ER-49" value="Apresentação da lista com elementos" style="shape=document;whiteSpace=wrap;html=1;boundedLbl=1;" vertex="1" parent="1">
                    <mxGeometry x="190" y="670" width="120" height="80" as="geometry"/>
                </mxCell>
                <mxCell id="ZVATye95yIs_yLcJs_ER-50" value="Item excluído da página" style="shape=document;whiteSpace=wrap;html=1;boundedLbl=1;" vertex="1" parent="1">
                    <mxGeometry x="680" y="670" width="120" height="80" as="geometry"/>
                </mxCell>
                <mxCell id="ZVATye95yIs_yLcJs_ER-51" value="Usuário insere no input o indice da lista que deseja excluir" style="shape=manualInput;whiteSpace=wrap;html=1;" vertex="1" parent="1">
                    <mxGeometry x="350" y="670" width="120" height="80" as="geometry"/>
                </mxCell>
                <mxCell id="ZVATye95yIs_yLcJs_ER-52" value="Apresentação da lista com elementos" style="shape=document;whiteSpace=wrap;html=1;boundedLbl=1;" vertex="1" parent="1">
                    <mxGeometry x="190" y="670" width="120" height="80" as="geometry"/>
                </mxCell>
                <mxCell id="ZVATye95yIs_yLcJs_ER-53" value="Item excluído da página" style="shape=document;whiteSpace=wrap;html=1;boundedLbl=1;" vertex="1" parent="1">
                    <mxGeometry x="680" y="670" width="120" height="80" as="geometry"/>
                </mxCell>
                <mxCell id="ZVATye95yIs_yLcJs_ER-54" value="Usuário insere no input o indice da lista que deseja excluir" style="shape=manualInput;whiteSpace=wrap;html=1;" vertex="1" parent="1">
                    <mxGeometry x="350" y="670" width="120" height="80" as="geometry"/>
                </mxCell>
                <mxCell id="ZVATye95yIs_yLcJs_ER-55" value="Apresentação da lista com elementos" style="shape=document;whiteSpace=wrap;html=1;boundedLbl=1;" vertex="1" parent="1">
                    <mxGeometry x="190" y="670" width="120" height="80" as="geometry"/>
                </mxCell>
                <mxCell id="ZVATye95yIs_yLcJs_ER-56" value="Dados gerais sobre a página" style="shape=document;whiteSpace=wrap;html=1;boundedLbl=1;" vertex="1" parent="1">
                    <mxGeometry x="30" y="670" width="120" height="80" as="geometry"/>
                </mxCell>
                <mxCell id="ZVATye95yIs_yLcJs_ER-57" value="Usuário clica no botão para ativar evento" style="shape=manualInput;whiteSpace=wrap;html=1;" vertex="1" parent="1">
                    <mxGeometry x="510" y="670" width="120" height="80" as="geometry"/>
                </mxCell>
                <mxCell id="ZVATye95yIs_yLcJs_ER-58" value="Usuário clica no botão para ativar evento" style="shape=manualInput;whiteSpace=wrap;html=1;" vertex="1" parent="1">
                    <mxGeometry x="510" y="670" width="120" height="80" as="geometry"/>
                </mxCell>
                <mxCell id="ZVATye95yIs_yLcJs_ER-59" value="Usuário clica no botão para ativar evento" style="shape=manualInput;whiteSpace=wrap;html=1;" vertex="1" parent="1">
                    <mxGeometry x="510" y="670" width="120" height="80" as="geometry"/>
                </mxCell>
                <mxCell id="ZVATye95yIs_yLcJs_ER-60" value="Usuário clica no botão para ativar evento" style="shape=manualInput;whiteSpace=wrap;html=1;" vertex="1" parent="1">
                    <mxGeometry x="510" y="670" width="120" height="80" as="geometry"/>
                </mxCell>
                <mxCell id="ZVATye95yIs_yLcJs_ER-61" value="Usuário clica no botão para ativar evento" style="shape=manualInput;whiteSpace=wrap;html=1;" vertex="1" parent="1">
                    <mxGeometry x="510" y="670" width="120" height="80" as="geometry"/>
                </mxCell>
                <mxCell id="ZVATye95yIs_yLcJs_ER-62" value="" style="endArrow=none;dashed=1;html=1;dashPattern=1 3;strokeWidth=2;" edge="1" parent="1">
                    <mxGeometry width="50" height="50" relative="1" as="geometry">
                        <mxPoint x="560" y="660" as="sourcePoint"/>
                        <mxPoint x="280" y="460" as="targetPoint"/>
                    </mxGeometry>
                </mxCell>
                <mxCell id="ZVATye95yIs_yLcJs_ER-63" value="" style="endArrow=none;dashed=1;html=1;dashPattern=1 3;strokeWidth=2;" edge="1" parent="1">
                    <mxGeometry width="50" height="50" relative="1" as="geometry">
                        <mxPoint x="240" y="660" as="sourcePoint"/>
                        <mxPoint x="500" y="450" as="targetPoint"/>
                    </mxGeometry>
                </mxCell>
                <mxCell id="ZVATye95yIs_yLcJs_ER-65" value="" style="endArrow=none;dashed=1;html=1;dashPattern=1 3;strokeWidth=2;exitX=0.75;exitY=0;exitDx=0;exitDy=0;" edge="1" parent="1" source="ZVATye95yIs_yLcJs_ER-54">
                    <mxGeometry width="50" height="50" relative="1" as="geometry">
                        <mxPoint x="670" y="500" as="sourcePoint"/>
                        <mxPoint x="720" y="450" as="targetPoint"/>
                    </mxGeometry>
                </mxCell>
            </root>
        </mxGraphModel>
    </diagram>
</mxfile>